<?xml version="1.0" encoding="utf-8"?>
<!-- Generator: Adobe Illustrator 19.2.0, SVG Export Plug-In . SVG Version: 6.00 Build 0)  -->
<svg version="1.1" id="Layer_1" xmlns="http://www.w3.org/2000/svg" xmlns:xlink="http://www.w3.org/1999/xlink" x="0px" y="0px"
	 viewBox="0 0 410.8 239.8" style="enable-background:new 0 0 410.8 239.8;" xml:space="preserve">
<style type="text/css">
	.st0{fill:#4A4949;}
	.st1{fill:#FFFFFF;}
	.st2{fill:#CD2327;}
</style>
<g>
	<path class="st0" d="M341.5,180.7c-2.1,2.4-4.9,2.3-7.8,2.3c-5.6-0.1-6.7,0.8-6.9,6.4c-0.2,5.2-0.1,10.5-0.1,15.7
		c0,3.9-1.8,5.6-5.7,5.6c-3.8,0-5.5-1.7-5.5-5.7c0-8.1,0-16.2,0-24.3c0-2.1-0.3-4.4,2.2-5.5c2.5-1.2,5.1-1.1,7,0.7
		c1.4,1.3,2.1,0.5,3.3,0c5.6-2.6,10.5-1.6,13.5,2.7C341.5,179.3,341.5,180,341.5,180.7z"/>
	<path class="st1" d="M171.9,100.2c0.2,36.2-29.2,64.7-64.8,64.8c-35.8,0.1-65.1-29.3-64.7-65.4c0.4-35.6,29-64.4,65.3-64.1
		C142.3,35.7,172.2,63.7,171.9,100.2z M89.4,92L89.4,92c0,8-0.1,16,0,23.9c0,1.4-0.5,3.1,2.1,3.1c15.8-0.1,31.7,0.1,47.5-0.1
		c7-0.1,11.3-5,11.3-12c0-10.7,0-21.4,0-32.2c0-9.7-7.3-17-17.1-17.1c-10.6,0-21.2,0-31.8,0c-7.4,0-12,4.6-12.1,11.9
		C89.4,77,89.4,84.5,89.4,92z M75.6,117c-6,0.9-11.6,5.5-11.8,13.1c-0.1,5.7,5.5,13.1,10,13.3c8.7,0.3,15.9-5.7,15.4-13.6
		C88.7,121.8,83.5,117.9,75.6,117z"/>
	<path class="st0" d="M292.3,195.8c-3.1,0-6.2,0.1-9.3,0c-2.7-0.1-2.7,1.1-1.8,3c1.6,3.4,6.7,4.7,11.3,2.8c1.7-0.7,3.3-1.9,5.1-2.6
		c2.6-1,5.2-1.1,6.8,1.8c1.5,2.9-0.5,4.6-2.5,5.8c-8.2,4.8-16.9,5.7-25.5,1.4c-6.1-3-7.5-8.9-7.5-15.1c0-7,1.5-13.6,8.9-16.3
		c7.9-2.9,16-3.7,23.3,1.9c5,3.8,5.2,9.3,4.7,14.9c-0.2,2-1.8,2.3-3.5,2.3C298.9,195.8,295.6,195.8,292.3,195.8L292.3,195.8z
		 M289.2,188.2L289.2,188.2c1.9,0,3.8,0.1,5.7,0c0.9,0,2.2,0.6,2.5-0.5c0.3-0.9-0.1-2-0.7-3c-2.6-3.8-13.2-3.4-15.2,0.6
		c-0.8,1.6-1.3,3.2,1.7,2.9C285.2,188,287.2,188.2,289.2,188.2z"/>
	<path class="st0" d="M105.8,210.3c-1.9-0.1-3.8-0.1-5.7-0.4c-8.7-1.6-13-6.9-13.2-16.7c-0.1-2.6,0.3-5.2,0.8-7.8
		c1.5-6.6,6-10,12.5-10.9c4.8-0.7,9.7-0.7,14.5,0.9c4.6,1.5,7.6,4.7,9,9.3c1.2,4.3,1.4,8.7,0.5,13.1c-1.7,7.7-6.5,11.8-14.4,12.4
		c-1.3,0.1-2.6,0-3.9,0C105.8,210.2,105.8,210.2,105.8,210.3z M112.6,192.7c-0.3-2,0-4.1-0.7-6.2c-0.9-3-2.7-4.6-5.9-4.5
		c-3.4,0.1-6.1,1.1-6.8,4.9c-0.7,3.8-0.7,7.6,0.3,11.3c0.7,2.5,2.3,4,5.1,4.2C110.5,203,112.9,200.1,112.6,192.7z"/>
	<path class="st0" d="M197.6,210.3c-2-0.2-4-0.1-6-0.6c-7.4-1.6-11.1-5.8-12-13.4c-0.1-1.1-0.4-2.1-0.4-3.2
		c-0.5-12.5,5.6-18.9,18.1-19c1.5,0,3.1,0,4.6,0.1c8.2,0.7,12.7,4.6,14.5,12.6c0.9,4.1,0.8,8.3-0.3,12.3c-1.6,6.1-6.2,9.9-12.8,10.7
		C201.5,210.2,199.6,210.2,197.6,210.3z M204.8,192c-0.1-1.2,0-3.5-0.7-5.7c-1-3-2.8-4.5-6-4.3s-5.9,1-6.6,4.7
		c-0.7,3.9-0.8,7.8,0.4,11.6c1,3.4,3.2,4.4,7.3,4c3.4-0.3,5.1-2.2,5.5-5.4C205,195.6,204.8,194.3,204.8,192z"/>
	<path class="st0" d="M134.1,192.7c0-4.1,0-8.1,0-12.2c0-2.1,0.4-3.8,2.4-4.8c2.1-1.1,4.5-1.5,6.4,0.1c1.5,1.2,2.4,1.1,4.1,0.4
		c5-2.2,10.2-2,15.3-0.3c4.9,1.7,7.4,5.4,7.5,10.6c0.1,6.1,0.1,12.2,0,18.2c0,4.1-2.1,6-5.9,5.9c-4.1-0.1-5.7-1.9-5.7-6
		c0-5.5,0.1-11,0-16.5c0-3.6-2-5.4-5.6-5.5c-4-0.1-6.5,1.7-6.6,5.3c-0.2,5.7-0.1,11.4-0.1,17.2c0,3.6-2,5.5-5.8,5.5
		s-5.7-1.9-5.8-5.6c0-4.2,0-8.3,0-12.5C134.2,192.7,134.2,192.7,134.1,192.7z"/>
	<path class="st0" d="M62.8,210.2c-7.1-0.1-13.6-1.1-17.3-7.7c-4.6-8.4-3.6-24.3,9.5-26.9c5.5-1.1,11.1-1.4,16.6,0.7
		c1.6,0.6,3.1,1.3,4.3,2.4c1.9,1.8,3.6,3.8,1.6,6.5c-1.6,2.2-5,2.6-7.4,0.9c-1.7-1.2-3.4-2.7-5.5-3.1c-5.9-1.3-9.2,2-9.3,9.1
		c0,1.2,0.3,2.4,0.3,3.6c-0.1,3.1,1,5.4,4,6.4c3.4,1.1,6.8,0.1,8.8-2.9c1.5-2.2,3.3-3.7,6.1-3.4c4.6,0.4,6.2,4,3.6,7.9
		c-2.8,4.1-7.1,5.8-11.8,6.4C65.1,210.2,63.8,210.2,62.8,210.2z"/>
	<path class="st0" d="M243.7,210.2c-1.4-0.1-3.5-0.2-5.5-0.6c-10.4-2-13.8-9.1-13.1-19.3c0.6-9.9,6.7-15.2,16.5-15.5
		c4.7-0.1,9.3,0,13.6,2.2c4,2,6,5.2,4.7,7.6c-1.6,3-5.5,3.2-9.3,0.4c-1.5-1.1-2.9-2-4.8-2.3c-5.9-0.8-9,2.9-8.5,10.1
		c0.1,0.9,0.4,1.9,0.3,2.8c-0.1,2.9,0.8,5.2,3.7,6.2c3.5,1.2,6.7,0.4,8.9-2.5c1.6-2.2,3.3-4.1,6.4-3.7c4.2,0.5,6,3.7,3.8,7.4
		c-2.6,4.4-6.8,6.1-11.5,6.9C247.4,210.2,245.8,210.1,243.7,210.2z"/>
	<path class="st2" d="M89.4,92c0-7.5,0-15,0-22.5c0-7.3,4.7-11.9,12.1-11.9c10.6,0,21.2,0,31.8,0c9.8,0,17,7.4,17.1,17.1
		c0,10.7,0,21.4,0,32.2c0,7-4.2,11.9-11.3,12c-15.8,0.2-31.7,0-47.5,0.1c-2.6,0-2.1-1.6-2.1-3.1C89.4,107.9,89.4,99.9,89.4,92
		L89.4,92z"/>
	<path class="st2" d="M75.6,117c7.9,0.9,13.1,4.8,13.6,12.7s-6.7,14-15.4,13.6c-4.5-0.2-10.2-7.5-10-13.3
		C64,122.5,69.6,117.8,75.6,117z"/>
</g>
</svg>
