<?xml version="1.0" encoding="utf-8"?>
<!-- Generator: Adobe Illustrator 19.2.0, SVG Export Plug-In . SVG Version: 6.00 Build 0)  -->
<svg version="1.1" id="Capa_1" xmlns="http://www.w3.org/2000/svg" xmlns:xlink="http://www.w3.org/1999/xlink" x="0px" y="0px"
	 viewBox="0 0 512 512" style="enable-background:new 0 0 512 512;" xml:space="preserve">
<style type="text/css">
	.st0{fill:#FFFFFF;}
</style>
<g>
	<g>
		<rect x="153.6" y="8.5" class="st0" width="59.7" height="17.1"/>
		<rect x="307.2" y="8.5" class="st0" width="51.2" height="17.1"/>
		<path class="st0" d="M503.5,8.5h-51.2v17.1h42.7v128H17.1v-128h42.7V8.5H8.5C3.4,8.5,0,11.9,0,17.1v145.1v341.3
			c0,5.1,3.4,8.5,8.5,8.5h494.9c5.1,0,8.5-3.4,8.5-8.5V162.1V17.1C512,11.9,508.6,8.5,503.5,8.5z M494.9,494.9H17.1V170.7h477.9
			V494.9z"/>
		<path class="st0" d="M256,119.5h8.5c14.5,0,25.6-11.1,25.6-25.6V25.6C290.1,11.1,279,0,264.5,0H256c-14.5,0-25.6,11.1-25.6,25.6
			v68.3C230.4,108.4,241.5,119.5,256,119.5z M247.5,25.6c0-5.1,3.4-8.5,8.5-8.5h8.5c5.1,0,8.5,3.4,8.5,8.5v68.3
			c0,5.1-3.4,8.5-8.5,8.5H256c-5.1,0-8.5-3.4-8.5-8.5V25.6z"/>
		<path class="st0" d="M401.1,119.5h8.5c14.5,0,25.6-11.1,25.6-25.6V25.6c0-14.5-11.1-25.6-25.6-25.6h-8.5
			c-14.5,0-25.6,11.1-25.6,25.6v68.3C375.5,108.4,386.6,119.5,401.1,119.5z M392.5,25.6c0-5.1,3.4-8.5,8.5-8.5h8.5
			c5.1,0,8.5,3.4,8.5,8.5v68.3c0,5.1-3.4,8.5-8.5,8.5h-8.5c-5.1,0-8.5-3.4-8.5-8.5V25.6z"/>
		<path class="st0" d="M102.4,119.5h8.5c14.5,0,25.6-11.1,25.6-25.6V25.6c0-14.5-11.1-25.6-25.6-25.6h-8.5
			C87.9,0,76.8,11.1,76.8,25.6v68.3C76.8,108.4,87.9,119.5,102.4,119.5z M93.9,25.6c0-5.1,3.4-8.5,8.5-8.5h8.5
			c5.1,0,8.5,3.4,8.5,8.5v68.3c0,5.1-3.4,8.5-8.5,8.5h-8.5c-5.1,0-8.5-3.4-8.5-8.5V25.6z"/>
		<path class="st0" d="M59.7,273.1h59.7c5.1,0,8.5-3.4,8.5-8.5v-51.2c0-5.1-3.4-8.5-8.5-8.5H59.7c-5.1,0-8.5,3.4-8.5,8.5v51.2
			C51.2,269.7,54.6,273.1,59.7,273.1z M68.3,221.9h42.7V256H68.3V221.9z"/>
		<path class="st0" d="M170.7,273.1h59.7c5.1,0,8.5-3.4,8.5-8.5v-51.2c0-5.1-3.4-8.5-8.5-8.5h-59.7c-5.1,0-8.5,3.4-8.5,8.5v51.2
			C162.1,269.7,165.5,273.1,170.7,273.1z M179.2,221.9h42.7V256h-42.7V221.9z"/>
		<path class="st0" d="M332.8,264.5h17.1v-51.2c0-5.1-3.4-8.5-8.5-8.5h-59.7v17.1h51.2V264.5z"/>
		<path class="st0" d="M392.5,273.1h59.7c5.1,0,8.5-3.4,8.5-8.5v-51.2c0-5.1-3.4-8.5-8.5-8.5h-59.7c-5.1,0-8.5,3.4-8.5,8.5v51.2
			C384,269.7,387.4,273.1,392.5,273.1z M401.1,221.9h42.7V256h-42.7V221.9z"/>
		<path class="st0" d="M119.5,298.7H59.7v17.1h51.2v42.7H128v-51.2C128,302.1,124.6,298.7,119.5,298.7z"/>
		<path class="st0" d="M170.7,366.9h59.7c5.1,0,8.5-3.4,8.5-8.5v-51.2c0-5.1-3.4-8.5-8.5-8.5h-59.7c-5.1,0-8.5,3.4-8.5,8.5v51.2
			C162.1,363.5,165.5,366.9,170.7,366.9z M179.2,315.7h42.7v34.1h-42.7V315.7z"/>
		<path class="st0" d="M281.6,366.9h59.7c5.1,0,8.5-3.4,8.5-8.5v-51.2c0-5.1-3.4-8.5-8.5-8.5h-59.7c-5.1,0-8.5,3.4-8.5,8.5v51.2
			C273.1,363.5,276.5,366.9,281.6,366.9z M290.1,315.7h42.7v34.1h-42.7V315.7z"/>
		<path class="st0" d="M392.5,366.9h59.7c5.1,0,8.5-3.4,8.5-8.5v-51.2c0-5.1-3.4-8.5-8.5-8.5h-59.7c-5.1,0-8.5,3.4-8.5,8.5v51.2
			C384,363.5,387.4,366.9,392.5,366.9z M401.1,315.7h42.7v34.1h-42.7V315.7z"/>
		<path class="st0" d="M59.7,460.8h59.7c5.1,0,8.5-3.4,8.5-8.5v-51.2c0-5.1-3.4-8.5-8.5-8.5H59.7c-5.1,0-8.5,3.4-8.5,8.5v51.2
			C51.2,457.4,54.6,460.8,59.7,460.8z M68.3,409.6h42.7v34.1H68.3V409.6z"/>
		<path class="st0" d="M230.4,392.5h-59.7v17.1h51.2v42.7h17.1v-51.2C238.9,395.9,235.5,392.5,230.4,392.5z"/>
		<path class="st0" d="M281.6,460.8h59.7c5.1,0,8.5-3.4,8.5-8.5v-51.2c0-5.1-3.4-8.5-8.5-8.5h-59.7c-5.1,0-8.5,3.4-8.5,8.5v51.2
			C273.1,457.4,276.5,460.8,281.6,460.8z M290.1,409.6h42.7v34.1h-42.7V409.6z"/>
		<path class="st0" d="M452.3,392.5h-59.7v17.1h51.2v42.7h17.1v-51.2C460.8,395.9,457.4,392.5,452.3,392.5z"/>
	</g>
</g>
</svg>
