<svg id="d35fa9bd-9fe4-42a4-853a-6104de95a9d8" data-name="Layer 1" xmlns="http://www.w3.org/2000/svg" viewBox="0 0 299.1 175.27"><defs><style>.\37 5d0214e-b485-47c0-81c4-c8c1d7832f54{fill:#fff;}.ad6d6e56-762d-4a2a-9b7f-570874ff6606{fill:none;}</style></defs><title>logoblanco</title><path class="75d0214e-b485-47c0-81c4-c8c1d7832f54" d="M341.5,180.7c-2.1,2.4-4.9,2.3-7.8,2.3-5.6-.1-6.7.8-6.9,6.4-0.2,5.2-.1,10.5-0.1,15.7,0,3.9-1.8,5.6-5.7,5.6s-5.5-1.7-5.5-5.7V180.7c0-2.1-.3-4.4,2.2-5.5s5.1-1.1,7,.7c1.4,1.3,2.1.5,3.3,0,5.6-2.6,10.5-1.6,13.5,2.7v2.1Z" transform="translate(-42.4 -35.5)"/><path class="75d0214e-b485-47c0-81c4-c8c1d7832f54" d="M171.9,100.2c0.2,36.2-29.2,64.7-64.8,64.8a64.75,64.75,0,1,1,.6-129.5C142.3,35.7,172.2,63.7,171.9,100.2ZM89.4,92h0c0,8-.1,16,0,23.9,0,1.4-.5,3.1,2.1,3.1,15.8-.1,31.7.1,47.5-0.1,7-.1,11.3-5,11.3-12V74.7c0-9.7-7.3-17-17.1-17.1H101.4c-7.4,0-12,4.6-12.1,11.9C89.4,77,89.4,84.5,89.4,92ZM75.6,117c-6,.9-11.6,5.5-11.8,13.1-0.1,5.7,5.5,13.1,10,13.3,8.7,0.3,15.9-5.7,15.4-13.6S83.5,117.9,75.6,117Z" transform="translate(-42.4 -35.5)"/><path class="75d0214e-b485-47c0-81c4-c8c1d7832f54" d="M292.3,195.8c-3.1,0-6.2.1-9.3,0-2.7-.1-2.7,1.1-1.8,3,1.6,3.4,6.7,4.7,11.3,2.8,1.7-.7,3.3-1.9,5.1-2.6,2.6-1,5.2-1.1,6.8,1.8s-0.5,4.6-2.5,5.8c-8.2,4.8-16.9,5.7-25.5,1.4-6.1-3-7.5-8.9-7.5-15.1,0-7,1.5-13.6,8.9-16.3,7.9-2.9,16-3.7,23.3,1.9,5,3.8,5.2,9.3,4.7,14.9-0.2,2-1.8,2.3-3.5,2.3-3.4.1-6.7,0.1-10,.1h0Zm-3.1-7.6h0c1.9,0,3.8.1,5.7,0,0.9,0,2.2.6,2.5-.5a3.85,3.85,0,0,0-.7-3c-2.6-3.8-13.2-3.4-15.2.6-0.8,1.6-1.3,3.2,1.7,2.9C285.2,188,287.2,188.2,289.2,188.2Z" transform="translate(-42.4 -35.5)"/><path class="75d0214e-b485-47c0-81c4-c8c1d7832f54" d="M105.8,210.3a54.59,54.59,0,0,1-5.7-.4c-8.7-1.6-13-6.9-13.2-16.7a34.45,34.45,0,0,1,.8-7.8c1.5-6.6,6-10,12.5-10.9a31.08,31.08,0,0,1,14.5.9,13.37,13.37,0,0,1,9,9.3,27.64,27.64,0,0,1,.5,13.1c-1.7,7.7-6.5,11.8-14.4,12.4-1.3.1-2.6,0-3.9,0C105.8,210.2,105.8,210.2,105.8,210.3Zm6.8-17.6c-0.3-2,0-4.1-.7-6.2-0.9-3-2.7-4.6-5.9-4.5-3.4.1-6.1,1.1-6.8,4.9a25.34,25.34,0,0,0,.3,11.3,5.26,5.26,0,0,0,5.1,4.2C110.5,203,112.9,200.1,112.6,192.7Z" transform="translate(-42.4 -35.5)"/><path class="75d0214e-b485-47c0-81c4-c8c1d7832f54" d="M197.6,210.3a40.66,40.66,0,0,1-6-.6c-7.4-1.6-11.1-5.8-12-13.4-0.1-1.1-.4-2.1-0.4-3.2-0.5-12.5,5.6-18.9,18.1-19,1.5,0,3.1,0,4.6.1,8.2,0.7,12.7,4.6,14.5,12.6a25.58,25.58,0,0,1-.3,12.3c-1.6,6.1-6.2,9.9-12.8,10.7A34.54,34.54,0,0,1,197.6,210.3Zm7.2-18.3a22.85,22.85,0,0,0-.7-5.7c-1-3-2.8-4.5-6-4.3s-5.9,1-6.6,4.7a24,24,0,0,0,.4,11.6c1,3.4,3.2,4.4,7.3,4,3.4-.3,5.1-2.2,5.5-5.4C205,195.6,204.8,194.3,204.8,192Z" transform="translate(-42.4 -35.5)"/><path class="75d0214e-b485-47c0-81c4-c8c1d7832f54" d="M134.1,192.7V180.5c0-2.1.4-3.8,2.4-4.8s4.5-1.5,6.4.1c1.5,1.2,2.4,1.1,4.1.4,5-2.2,10.2-2,15.3-.3,4.9,1.7,7.4,5.4,7.5,10.6,0.1,6.1.1,12.2,0,18.2,0,4.1-2.1,6-5.9,5.9-4.1-.1-5.7-1.9-5.7-6,0-5.5.1-11,0-16.5,0-3.6-2-5.4-5.6-5.5-4-.1-6.5,1.7-6.6,5.3-0.2,5.7-.1,11.4-0.1,17.2,0,3.6-2,5.5-5.8,5.5s-5.7-1.9-5.8-5.6V192.5C134.2,192.7,134.2,192.7,134.1,192.7Z" transform="translate(-42.4 -35.5)"/><path class="75d0214e-b485-47c0-81c4-c8c1d7832f54" d="M62.8,210.2c-7.1-.1-13.6-1.1-17.3-7.7-4.6-8.4-3.6-24.3,9.5-26.9,5.5-1.1,11.1-1.4,16.6.7a12.91,12.91,0,0,1,4.3,2.4c1.9,1.8,3.6,3.8,1.6,6.5a5.41,5.41,0,0,1-7.4.9c-1.7-1.2-3.4-2.7-5.5-3.1-5.9-1.3-9.2,2-9.3,9.1,0,1.2.3,2.4,0.3,3.6-0.1,3.1,1,5.4,4,6.4a7.42,7.42,0,0,0,8.8-2.9c1.5-2.2,3.3-3.7,6.1-3.4,4.6,0.4,6.2,4,3.6,7.9-2.8,4.1-7.1,5.8-11.8,6.4C65.1,210.2,63.8,210.2,62.8,210.2Z" transform="translate(-42.4 -35.5)"/><path class="75d0214e-b485-47c0-81c4-c8c1d7832f54" d="M243.7,210.2a43.49,43.49,0,0,1-5.5-.6c-10.4-2-13.8-9.1-13.1-19.3,0.6-9.9,6.7-15.2,16.5-15.5,4.7-.1,9.3,0,13.6,2.2,4,2,6,5.2,4.7,7.6-1.6,3-5.5,3.2-9.3.4a10.73,10.73,0,0,0-4.8-2.3c-5.9-.8-9,2.9-8.5,10.1a13.33,13.33,0,0,1,.3,2.8c-0.1,2.9.8,5.2,3.7,6.2,3.5,1.2,6.7.4,8.9-2.5,1.6-2.2,3.3-4.1,6.4-3.7,4.2,0.5,6,3.7,3.8,7.4-2.6,4.4-6.8,6.1-11.5,6.9A38.37,38.37,0,0,1,243.7,210.2Z" transform="translate(-42.4 -35.5)"/><path class="ad6d6e56-762d-4a2a-9b7f-570874ff6606" d="M89.4,92V69.5c0-7.3,4.7-11.9,12.1-11.9h31.8c9.8,0,17,7.4,17.1,17.1v32.2c0,7-4.2,11.9-11.3,12-15.8.2-31.7,0-47.5,0.1-2.6,0-2.1-1.6-2.1-3.1-0.1-8-.1-16-0.1-23.9h0Z" transform="translate(-42.4 -35.5)"/><path class="ad6d6e56-762d-4a2a-9b7f-570874ff6606" d="M75.6,117c7.9,0.9,13.1,4.8,13.6,12.7s-6.7,14-15.4,13.6c-4.5-.2-10.2-7.5-10-13.3A13.31,13.31,0,0,1,75.6,117Z" transform="translate(-42.4 -35.5)"/></svg>