<?xml version="1.0" standalone="no"?>
<!DOCTYPE svg PUBLIC "-//W3C//DTD SVG 20010904//EN"
 "http://www.w3.org/TR/2001/REC-SVG-20010904/DTD/svg10.dtd">
<svg version="1.0" xmlns="http://www.w3.org/2000/svg"
 width="338.000000pt" height="338.000000pt" viewBox="0 0 338.000000 338.000000"
 preserveAspectRatio="xMidYMid meet">
<g transform="translate(0.000000,338.000000) scale(0.100000,-0.100000)"
fill="#ffffff" stroke="none">
<path d="M656 3371 c-4 -5 -25 -12 -49 -16 -51 -8 -107 -25 -127 -40 -8 -5
-31 -19 -50 -30 -40 -22 -41 -22 -93 -66 -71 -59 -177 -221 -177 -269 0 -10
-7 -34 -15 -53 -13 -32 -15 -189 -15 -1203 0 -1047 2 -1173 16 -1223 42 -144
120 -259 239 -349 6 -5 26 -17 45 -27 19 -11 42 -25 50 -30 20 -15 76 -32 127
-40 24 -4 45 -11 49 -16 3 -5 215 -9 507 -9 l502 0 28 25 c36 35 39 110 5 140
-22 19 -44 20 -523 26 -299 3 -516 10 -540 16 -49 13 -83 31 -150 79 -69 50
-145 157 -145 203 0 11 -4 23 -10 26 -14 9 -14 2341 0 2350 6 3 10 15 10 25 0
36 44 105 105 165 63 63 124 101 190 118 24 6 246 13 548 16 l509 6 24 28 c34
39 32 84 -5 125 l-30 32 -510 0 c-297 0 -512 -4 -515 -9z"/>
<path d="M2480 2370 c-29 -27 -32 -35 -27 -72 5 -38 23 -59 233 -269 153 -154
225 -232 218 -239 -6 -6 -353 -11 -1001 -12 l-991 -3 -21 -25 c-12 -15 -20
-39 -20 -60 0 -21 8 -45 20 -60 l21 -25 991 -3 c648 -1 995 -6 1001 -12 7 -7
-65 -85 -218 -239 -210 -210 -228 -231 -233 -269 -5 -37 -2 -45 27 -72 23 -22
42 -30 68 -30 34 0 55 19 369 333 l333 332 0 44 0 44 -333 334 c-314 314 -335
333 -369 333 -26 0 -45 -8 -68 -30z"/>
</g>
</svg>
